<svg width="104" height="140" viewBox="0 0 104 140" fill="none" xmlns="http://www.w3.org/2000/svg">
<path d="M76.7273 51.6846C84.4534 51.6846 108.964 58.6122 103.103 103.637C97.2417 148.661 12.2546 139.07 7.99198 138.537C4.58193 138.111 4.08488 134.984 4.26249 133.475C9.05826 100.706 46.3563 101.238 50.6189 101.505C54.8818 101.771 72.465 99.1067 72.9978 75.6621C73.4238 56.9068 53.6384 53.6392 43.6922 54.3496C39.696 51.9519 69.0006 51.6846 76.7273 51.6846ZM0.89628 36.1113C6.75734 -8.91228 91.7409 0.676801 96.0066 1.20998C99.4168 1.63624 99.9147 4.76278 99.7371 6.27248C94.9414 39.0415 57.6423 38.5086 53.3797 38.2422C49.1163 37.976 31.5336 40.641 31.0008 64.085C30.5747 82.8405 50.3612 86.1089 60.3074 85.3985C64.3006 87.7959 34.9972 88.0625 27.2713 88.0625C19.5452 88.0625 -4.9647 81.1355 0.89628 36.1113Z" fill="#495E30"/>
<circle cx="50.0861" cy="70.3342" r="11.7224" fill="#E6C28D"/>
</svg>
